<?xml version="1.0" encoding="UTF-8" standalone="no"?>
<!-- Created with Inkscape (http://www.inkscape.org/) -->

<svg xmlns:dc="http://purl.org/dc/elements/1.1/" xmlns:cc="http://creativecommons.org/ns#" xmlns:rdf="http://www.w3.org/1999/02/22-rdf-syntax-ns#" xmlns:svg="http://www.w3.org/2000/svg" xmlns="http://www.w3.org/2000/svg" version="1.1" width="58" height="36" id="svg3039">
  <metadata id="metadata3045">
    <rdf:RDF>
      <cc:Work rdf:about="">
        <dc:format>image/svg+xml</dc:format>
        <dc:type rdf:resource="http://purl.org/dc/dcmitype/StillImage" />
        <dc:title></dc:title>
      </cc:Work>
    </rdf:RDF>
  </metadata>
  <defs id="defs3043" />
  <path d="M 52.641402,32.597347 38.724347,18.680293 c -0.396666,-0.396666 -0.396667,-1.035343 0,-1.432009 L 52.641402,3.3312279 m -14.214555,29.2661191 2e-6,-29.2661192 z" id="rect3049-3-6-7" style="color:#000000;fill:#ffffff;fill-opacity:1;fill-rule:nonzero;stroke:#169e1f;stroke-width:5.5999999;stroke-linecap:round;stroke-linejoin:round;stroke-miterlimit:4;stroke-opacity:1;stroke-dasharray:none;stroke-dashoffset:0;marker:none;visibility:visible;display:inline;overflow:visible;enable-background:accumulate" />
  <path d="m 22.35776,-17.646692 19.681687,0 c 0.560971,0 1.012584,0.451612 1.012584,1.012583 l 0,19.6816892 c 0,0.5609712 -0.451613,1.0125833 -1.012584,1.0125833 L 21.345177,-16.634109 c 0,-0.560971 0.451612,-1.012583 1.012583,-1.012583 z" transform="matrix(0.70710678,0.70710678,-0.70710678,0.70710678,0,0)" id="rect3049-3" style="color:#000000;fill:#ffffff;fill-opacity:1;fill-rule:nonzero;stroke:#c45c23;stroke-width:5.5999999;stroke-linecap:butt;stroke-linejoin:round;stroke-miterlimit:4;stroke-opacity:1;stroke-dasharray:none;stroke-dashoffset:0;marker:none;visibility:visible;display:inline;overflow:visible;enable-background:accumulate" />
  <rect width="21.706854" height="21.706856" rx="1.0125833" ry="1.0125833" x="14.678179" y="-10.979694" transform="matrix(0.70710678,0.70710678,-0.70710678,0.70710678,0,0)" id="rect3049" style="color:#000000;fill:#ffffff;fill-opacity:1;fill-rule:nonzero;stroke:#045ef2;stroke-width:5.5999999;stroke-linecap:butt;stroke-linejoin:miter;stroke-miterlimit:4;stroke-opacity:1;stroke-dasharray:none;stroke-dashoffset:0;marker:none;visibility:visible;display:inline;overflow:visible;enable-background:accumulate" />
</svg>
