<?xml version="1.0" encoding="UTF-8" standalone="no"?>
<!-- Created with Inkscape (http://www.inkscape.org/) -->

<svg xmlns:dc="http://purl.org/dc/elements/1.1/" xmlns:cc="http://creativecommons.org/ns#" xmlns:rdf="http://www.w3.org/1999/02/22-rdf-syntax-ns#" xmlns:svg="http://www.w3.org/2000/svg" xmlns="http://www.w3.org/2000/svg" version="1.1" width="69.128197" height="45.426403" id="svg3039">
  <metadata id="metadata3045">
    <rdf:RDF>
      <cc:Work rdf:about="">
        <dc:format>image/svg+xml</dc:format>
        <dc:type rdf:resource="http://purl.org/dc/dcmitype/StillImage" />
        <dc:title></dc:title>
      </cc:Work>
    </rdf:RDF>
  </metadata>
  <defs id="defs3043" />
  <path d="M 57.211165,37.347347 43.29411,23.430293 c -0.396666,-0.396666 -0.396667,-1.035343 0,-1.432009 L 57.211165,8.0812279 M 42.99661,37.347347 l 2e-6,-29.2661192 z" id="rect3049-3-6-7" style="color:#000000;fill:none;stroke:#169e1f;stroke-width:5.5999999;stroke-linecap:round;stroke-linejoin:round;stroke-miterlimit:4;stroke-opacity:1;stroke-dasharray:none;stroke-dashoffset:0;marker:none;visibility:visible;display:inline;overflow:visible;enable-background:accumulate" />
  <path d="M 32.857182,8.0812281 46.774236,21.998282 c 0.396667,0.396667 0.396667,1.035343 10e-7,1.43201 L 32.857181,37.347348 c -0.396666,0.396666 -1.035343,0.396666 -1.432009,-10e-7 l 1e-6,-29.2661189 c 0.396667,-0.3966664 1.035343,-0.3966664 1.432009,0 z" id="rect3049-3" style="color:#000000;fill:#ffffff;fill-opacity:1;fill-rule:nonzero;stroke:#c45c23;stroke-width:5.5999999;stroke-linecap:butt;stroke-linejoin:round;stroke-miterlimit:4;stroke-opacity:1;stroke-dasharray:none;stroke-dashoffset:0;marker:none;visibility:visible;display:inline;overflow:visible;enable-background:accumulate" />
  <path d="M 32.857182,8.0812278 46.774237,21.998282 c 0.396666,0.396666 0.396667,1.035343 0,1.432009 L 32.857182,37.347347 c -0.396667,0.396667 -1.035344,0.396666 -1.43201,0 l 2e-6,-29.2661192 c 0.396666,-0.3966664 1.035342,-0.3966664 1.432008,0 z" id="rect3049-3-5" style="color:#000000;fill:none;stroke:#c45c23;stroke-width:5.5999999;stroke-linecap:butt;stroke-linejoin:round;stroke-miterlimit:4;stroke-opacity:1;stroke-dasharray:none;stroke-dashoffset:0;marker:none;visibility:visible;display:inline;overflow:visible;enable-background:accumulate" />
  <path d="m 29.428623,12.081227 9.917055,9.917055 c 0.396666,0.396667 0.396666,1.035343 -10e-7,1.43201 l -9.917056,9.917055 c -0.396666,0.396667 -1.035342,0.396667 -1.432008,10e-7 l 0,-21.26612 c 0.396667,-0.396666 1.035343,-0.396667 1.43201,-10e-7 z" id="rect3049-7-6" style="color:#000000;fill:#ffffff;fill-opacity:1;fill-rule:nonzero;stroke:none;stroke-width:5.5999999;marker:none;visibility:visible;display:inline;overflow:visible;enable-background:accumulate" />
  <path d="m 22.71875,7.46875 c -0.372081,0 -0.696015,0.1335154 -0.9375,0.375 l -13.9375,13.9375 c -0.4774386,0.477439 -0.4774386,1.397561 0,1.875 l 13.9375,13.9375 c 0.477438,0.477438 1.397562,0.477438 1.875,0 l 13.9375,-13.9375 c 0.477438,-0.477438 0.477438,-1.397562 0,-1.875 L 23.65625,7.84375 c -0.241485,-0.2414846 -0.565419,-0.375 -0.9375,-0.375 z M 22.5,8.84375 A 2.4749009,2.4749009 0 0 1 24.46875,9.5625 L 35.875,20.96875 a 2.4749009,2.4749009 0 0 1 0,3.5 L 24.46875,35.875 a 2.4749009,2.4749009 0 0 1 -3.5,0 L 9.5625,24.46875 a 2.4749009,2.4749009 0 0 1 0,-3.5 L 20.96875,9.5625 A 2.4749009,2.4749009 0 0 1 22.5,8.84375 z" id="path6366" style="font-size:medium;font-style:normal;font-variant:normal;font-weight:normal;font-stretch:normal;text-indent:0;text-align:start;text-decoration:none;line-height:normal;letter-spacing:normal;word-spacing:normal;text-transform:none;direction:ltr;block-progression:tb;writing-mode:lr-tb;text-anchor:start;baseline-shift:baseline;color:#000000;fill:none;stroke:#ffffff;stroke-width:5.5999999;stroke-opacity:1;marker:none;visibility:visible;display:inline;overflow:visible;enable-background:accumulate;font-family:Sans;-inkscape-font-specification:Sans" />
  <path d="m 25.41165,6.098796 c -1.459284,-1.4592839 -3.932405,-1.4592839 -5.391689,0 L 6.098796,20.019961 c -1.4592839,1.459284 -1.4592839,3.932405 0,5.391689 l 13.921165,13.921165 c 1.459284,1.459283 3.932405,1.459283 5.391689,0 L 39.332815,25.41165 c 1.459283,-1.459284 1.459283,-3.932405 0,-5.391689 L 25.41165,6.098796 z M 22.715805,11.313708 34.117902,22.715805 22.715805,34.117902 11.313708,22.715805 22.715805,11.313708 z" id="rect3049" style="font-size:medium;font-style:normal;font-variant:normal;font-weight:normal;font-stretch:normal;text-indent:0;text-align:start;text-decoration:none;line-height:normal;letter-spacing:normal;word-spacing:normal;text-transform:none;direction:ltr;block-progression:tb;writing-mode:lr-tb;text-anchor:start;baseline-shift:baseline;color:#000000;fill:#045ef2;fill-opacity:1;stroke:none;stroke-width:5.5999999;marker:none;visibility:visible;display:inline;overflow:visible;enable-background:accumulate;font-family:Sans;-inkscape-font-specification:Sans" />
</svg>
